<?xml version="1.0" standalone="no"?>
<!DOCTYPE svg PUBLIC "-//W3C//DTD SVG 20010904//EN"
 "http://www.w3.org/TR/2001/REC-SVG-20010904/DTD/svg10.dtd">
<svg version="1.0" xmlns="http://www.w3.org/2000/svg"
 width="1029.000000pt" height="1029.000000pt" viewBox="0 0 1029.000000 1029.000000"
 preserveAspectRatio="xMidYMid meet">
<metadata>
Created by potrace 1.11, written by Peter Selinger 2001-2013
</metadata>
<g transform="translate(0.000000,1029.000000) scale(0.100000,-0.100000)"
fill="#000000" stroke="none">
<path d="M3748 10258 c-13 -18 -46 -67 -73 -108 -28 -41 -52 -77 -55 -80 -3
-3 -9 -13 -15 -22 -5 -9 -62 -92 -125 -185 -63 -92 -162 -238 -220 -324 -58
-85 -120 -177 -137 -203 -18 -26 -33 -51 -33 -56 0 -4 -4 -10 -8 -12 -7 -3
-54 -70 -234 -338 -42 -63 -81 -119 -85 -125 -8 -9 -82 -119 -321 -475 -50
-74 -95 -139 -99 -145 -10 -12 -221 -324 -243 -360 -24 -37 -154 -229 -160
-235 -3 -3 -9 -13 -15 -22 -5 -9 -43 -66 -84 -125 -220 -321 -261 -383 -261
-392 0 -5 -4 -11 -9 -13 -10 -4 -161 -226 -161 -238 0 -5 -4 -10 -9 -12 -4 -1
-20 -21 -34 -43 -14 -22 -62 -93 -106 -158 -45 -64 -81 -121 -81 -126 0 -5 -4
-11 -8 -13 -4 -1 -60 -79 -123 -173 -185 -272 -361 -533 -422 -625 -32 -47
-60 -89 -65 -95 -33 -43 -262 -386 -262 -394 0 -5 -4 -11 -8 -13 -18 -7 -91
-121 -85 -132 6 -9 80 -107 116 -151 11 -14 333 -428 385 -495 23 -30 46 -60
51 -66 4 -5 55 -71 112 -145 57 -74 109 -141 116 -149 14 -17 232 -299 266
-343 12 -16 27 -34 32 -40 6 -7 33 -41 60 -77 28 -36 55 -70 60 -76 6 -6 21
-26 35 -44 14 -18 66 -85 115 -149 50 -64 115 -147 145 -186 30 -38 58 -74 62
-80 5 -5 43 -55 85 -110 43 -55 80 -102 83 -105 3 -3 19 -23 35 -45 16 -22 35
-47 42 -55 11 -13 165 -211 241 -310 108 -140 237 -306 242 -310 3 -3 32 -41
65 -84 33 -44 75 -98 93 -120 17 -23 36 -45 40 -51 8 -10 64 -83 170 -219 34
-45 87 -112 116 -151 30 -38 66 -83 80 -98 14 -15 26 -30 26 -33 0 -2 59 -80
131 -172 72 -92 156 -201 187 -242 31 -41 59 -77 62 -80 3 -3 41 -50 83 -105
42 -55 95 -122 117 -150 42 -53 199 -254 302 -390 34 -44 73 -94 87 -110 14
-17 33 -41 41 -53 l15 -23 85 31 c47 17 123 45 170 62 47 17 139 50 205 73 66
24 140 51 165 60 25 8 54 20 65 25 11 5 65 24 120 43 55 19 208 74 340 122
132 48 296 107 365 132 137 49 224 81 255 93 11 4 52 19 90 33 39 13 120 43
180 65 61 22 121 43 135 47 14 4 39 13 55 20 17 7 158 59 315 115 272 98 558
201 665 240 28 10 133 49 235 85 102 36 208 75 235 85 28 11 133 49 235 86
102 36 228 82 280 101 52 19 112 40 133 45 20 6 37 13 37 17 0 4 9 7 19 8 10
1 41 10 68 21 26 11 152 57 278 102 209 74 271 97 330 120 27 11 289 105 295
106 5 1 44 16 80 31 8 3 20 7 26 8 13 3 146 51 279 100 50 19 125 46 168 61
l77 27 -5 151 c-5 145 -8 235 -19 596 -3 91 -8 230 -11 310 -3 80 -7 208 -10
285 -2 77 -7 219 -10 315 -3 96 -8 234 -10 305 -3 72 -7 209 -10 305 -3 96 -7
240 -10 319 -3 79 -8 210 -10 290 -3 80 -7 216 -10 301 -3 85 -7 234 -10 330
-4 96 -8 229 -10 295 -2 66 -7 206 -10 310 -3 105 -8 244 -10 310 -2 66 -7
203 -10 305 -4 102 -8 235 -10 295 -4 115 -13 387 -20 610 -21 665 -23 717
-33 727 -7 7 -78 28 -267 81 -11 3 -67 19 -125 37 -58 17 -112 33 -120 35 -8
1 -55 15 -105 30 -49 14 -119 35 -155 45 -36 10 -114 33 -175 50 -60 17 -123
35 -140 40 -16 5 -61 18 -100 30 -38 11 -77 23 -85 25 -16 3 -221 62 -425 122
-66 19 -149 43 -185 53 -36 10 -153 44 -260 75 -392 114 -436 127 -465 134
-16 5 -57 17 -90 27 -33 10 -62 19 -65 19 -3 1 -18 5 -35 9 -16 5 -49 14 -72
22 -23 7 -75 22 -115 33 -40 11 -129 36 -198 56 -69 20 -132 39 -140 41 -8 2
-78 22 -155 45 -77 22 -147 42 -155 44 -18 4 -141 41 -187 56 -18 5 -40 12
-50 14 -17 3 -88 24 -208 60 -84 25 -329 96 -345 99 -8 2 -22 6 -30 9 -21 8
-190 57 -215 63 -24 5 -220 61 -435 125 -36 10 -119 35 -185 53 -66 19 -223
65 -350 102 -126 36 -246 71 -265 76 -48 12 -56 14 -130 37 -36 12 -66 21 -66
21 -1 0 -12 -15 -26 -32z"/>
</g>
</svg>
